<svg width="0" height="0" class="hidden">
    <symbol fill="none" xmlns="http://www.w3.org/2000/svg"
            xmlns:xlink="http://www.w3.org/1999/xlink" viewBox="0 0 110 104.575" id="collapsedlogo">
        <path id="Vector"
              d="M93.4033 35.4685L106.743 35.4685L106.743 49.8452L93.4033 49.8452L93.4033 77.3167C93.4033 86.6665 93.9814 86.6389 95.1396 87.7341C96.2979 88.8296 98.6133 89.3772 102.087 89.3772C103.245 89.5142 104.258 89.3772 105.416 89.2402C106.43 89.2402 107.829 88.4646 108.553 87.7341L108.553 102.795C106.743 103.568 104.692 104.438 102.666 104.438C100.495 104.575 98.4688 104.575 96.4424 104.575C96.3066 104.575 94.0146 104.575 93.0498 104.438C90.6992 104.105 87.2041 102.864 85.0332 101.632C83.8271 100.947 80.6914 97.8662 80.3291 96.4971C79.2432 94.7856 78.6396 91.4309 78.6396 87.8711L78.6396 49.8452L65.8555 49.8452L65.8555 35.4685L78.6396 35.4685L78.6396 11.5076L93.4033 11.5076L93.4033 35.4685Z"
              fill="#10239E" fill-opacity="1.000000" fill-rule="nonzero"/>
        <path id="Vector"
              d="M2.1709 49.8452L12.3027 49.8452L12.3027 102.932L28.5127 102.932L28.5127 49.8452L40.5264 49.8452L40.5264 35.4685L28.5127 35.4685L28.5127 34.2363C28.5127 31.3611 29.0918 28.6304 30.25 27.3982C31.4082 26.166 33.4346 25.4812 36.3291 25.4812C38.9346 25.4812 41.3945 25.6182 43.8555 25.8921L43.8555 11.5076L38.3555 11.5076L32.9277 11.5076C26.0527 11.5076 20.625 14.8245 17.3682 18.0112C13.1709 22.1189 12.3027 26.8425 12.3027 33.0039L12.3027 35.4685L2.1709 35.4685L2.1709 49.8452ZM61.5127 56.0066L45.7373 56.0066L45.7373 102.932L61.5127 102.932L61.5127 56.0066Z"
              fill="#10239E" fill-opacity="1.000000" fill-rule="evenodd"/>
        <path id="Vector"
              d="M61.5127 42.7939C61.5127 46.9646 58.085 50.3457 53.9141 50.3457L53.9141 50.3457C49.7432 50.3457 46.3154 46.9646 46.3154 42.7939L46.3154 42.7939C46.3154 38.623 49.7432 35.2419 53.9141 35.2419L53.9141 35.2419C58.085 35.2419 61.5127 38.623 61.5127 42.7939L61.5127 42.7939Z"
              fill="#40A9FF" fill-opacity="1.000000" fill-rule="nonzero"/>
    </symbol>

    <symbol fill="none" xmlns="http://www.w3.org/2000/svg"
            xmlns:xlink="http://www.w3.org/1999/xlink" viewBox="0 0 133 33.1826" id="logo">

        <path id="Vector"
              d="M86.2627 16.1459L90.9233 16.1459L90.9233 19.1987L90.9922 19.1987C91.1997 18.7217 91.5103 18.2447 91.9248 17.7995C92.3042 17.3543 92.7529 17.0045 93.271 16.6865C93.7544 16.3685 94.3066 16.1459 94.8936 15.9551C95.4458 15.7961 96.0674 15.7325 96.689 15.7007C96.9995 15.7007 97.3447 15.7643 97.7593 15.8597L97.7593 20.0573C97.5176 20.0255 97.2412 19.9937 96.9307 19.9619C96.5854 19.9301 96.2744 19.8983 95.9985 19.8983C95.1006 19.8983 94.3413 20.0573 93.7197 20.3117C93.0981 20.5979 92.5806 20.9795 92.2007 21.4565C91.8208 21.9335 91.5449 22.4741 91.4067 23.1101C91.2339 23.7461 91.165 24.4457 91.165 25.1772L91.165 32.6608L86.2627 32.6608L86.2627 16.1459Z"
              fill="#10239E" fill-opacity="1.000000" fill-rule="nonzero"/>
        <path id="Vector"
              d="M79.6616 22.6013C79.4199 21.4565 79.0054 20.5979 78.4185 19.9937C77.8315 19.4213 76.9341 19.1351 75.7603 19.1033C74.9663 19.1033 74.3105 19.2305 73.7925 19.4849C73.2744 19.7393 72.8604 20.0255 72.5498 20.3753C72.2388 20.7569 72.0317 21.1385 71.8936 21.5201C71.7554 21.9335 71.6865 22.2833 71.6865 22.6013L79.6616 22.6013ZM71.6865 25.4633C71.7554 26.9262 72.1353 28.0074 72.895 28.6434C73.6196 29.3112 74.6899 29.6292 76.0708 29.6292C77.0376 29.6292 77.9009 29.4066 78.626 28.9614C79.3164 28.5162 79.7651 28.0074 79.9375 27.4986L84.2529 27.4986C83.5625 29.4702 82.4922 30.9012 81.0771 31.728C79.627 32.5866 77.9009 33 75.8984 33C74.4829 33 73.2056 32.8092 72.1006 32.3958C70.9614 31.9824 69.9951 31.3782 69.2354 30.615C68.4414 29.8518 67.8198 28.9614 67.4058 27.8802C66.9912 26.8307 66.7842 25.6541 66.7842 24.3821C66.7842 23.1737 66.9912 22.0289 67.4399 20.9477C67.8545 19.8983 68.4761 18.9761 69.3042 18.2129C70.0986 17.4497 71.0649 16.8137 72.1699 16.3685C73.2744 15.9233 74.5176 15.7007 75.8984 15.7007C77.4175 15.7007 78.7295 15.9869 79.8687 16.5275C80.9731 17.0681 81.9058 17.7995 82.6304 18.6899C83.3555 19.6121 83.8735 20.6615 84.2188 21.8063C84.5293 22.9829 84.6328 24.1913 84.564 25.4633L71.6865 25.4633Z"
              fill="#10239E" fill-opacity="1.000000" fill-rule="nonzero"/>
        <path id="Vector"
              d="M60.7617 32.6608L55.3066 32.6608L49.2275 16.1459L54.3716 16.1459L58.1348 27.3714L58.2036 27.3714L61.9668 16.1459L66.8345 16.1459L60.7617 32.6608Z"
              fill="#10239E" fill-opacity="1.000000" fill-rule="nonzero"/>
        <path id="Vector"
              d="M44.3179 22.6013C44.0762 21.4565 43.6616 20.5979 43.0747 19.9937C42.4878 19.4213 41.5903 19.1351 40.4165 19.1033C39.6226 19.1033 38.9668 19.2305 38.4487 19.4849C37.9307 19.7393 37.5166 20.0255 37.2061 20.3753C36.895 20.7569 36.688 21.1385 36.5498 21.5201C36.4116 21.9335 36.3428 22.2833 36.3428 22.6013L44.3179 22.6013ZM36.3428 25.4633C36.4116 26.9262 36.7915 28.0074 37.5513 28.6434C38.2759 29.3112 39.3462 29.6292 40.7271 29.6292C41.6938 29.6292 42.5571 29.4066 43.2822 28.9614C43.9727 28.5162 44.4214 28.0074 44.5938 27.4986L48.9092 27.4986C48.2188 29.4702 47.1484 30.9012 45.7334 31.728C44.2832 32.5866 42.5571 33 40.5547 33C39.1392 33 37.8618 32.8092 36.7568 32.3958C35.6177 31.9824 34.6509 31.3782 33.8916 30.615C33.0977 29.8518 32.4761 28.9614 32.062 27.8802C31.6475 26.8307 31.4404 25.6541 31.4404 24.3821C31.4404 23.1737 31.6475 22.0289 32.0962 20.9477C32.5107 19.8983 33.1323 18.9761 33.9604 18.2129C34.7549 17.4497 35.7212 16.8137 36.8262 16.3685C37.9307 15.9233 39.1738 15.7007 40.5547 15.7007C42.0737 15.7007 43.3857 15.9869 44.5249 16.5275C45.6294 17.0681 46.5615 17.7995 47.2866 18.6899C48.0117 19.6121 48.5298 20.6615 48.875 21.8063C49.1855 22.9829 49.2891 24.1913 49.2202 25.4633L36.3428 25.4633Z"
              fill="#10239E" fill-opacity="1.000000" fill-rule="nonzero"/>
        <path id="Vector"
              d="M24.8569 9.12863L29.6904 9.12863L29.6904 32.6608L24.8569 32.6608L24.8569 9.12863Z"
              fill="#10239E" fill-opacity="1.000000" fill-rule="nonzero"/>
        <path id="Vector"
              d="M17.5474 17.2247C17.4434 16.6577 17.2358 16.1536 16.9243 15.6811C16.5781 15.2086 16.1978 14.799 15.7129 14.421C15.2285 14.0745 14.6748 13.791 14.0518 13.602C13.4287 13.4129 12.8057 13.3184 12.1479 13.2869C10.9023 13.2869 9.86377 13.5074 9.0332 13.9485C8.16797 14.3895 7.47559 14.9565 6.95654 15.6811C6.40283 16.4056 6.02197 17.2247 5.77979 18.1383C5.5376 19.0833 5.43359 20.0284 5.43359 21.005C5.43359 21.95 5.5376 22.8951 5.77979 23.7772C6.02197 24.6592 6.40283 25.4783 6.95654 26.1713C7.47559 26.8959 8.16797 27.4629 9.0332 27.904C9.86377 28.345 10.9023 28.534 12.1479 28.534C13.8096 28.534 15.0898 28.093 16.0244 27.1479C16.959 26.2343 17.5474 25.0058 17.7549 23.4937L23.0156 23.4937C22.8774 24.9113 22.4966 26.1713 21.9429 27.3054C21.3545 28.4395 20.5933 29.4161 19.6587 30.2036C18.6895 31.0227 17.582 31.6212 16.3359 32.0308C15.0552 32.4718 13.6709 32.6608 12.1479 32.6608C10.2446 32.6608 8.54883 32.3773 7.02588 31.7787C5.50293 31.1802 4.25684 30.3611 3.21875 29.2901C2.18066 28.2505 1.38428 27.0219 0.830566 25.6043C0.276855 24.1867 0 22.6431 0 21.005C0 19.3354 0.276855 17.7917 0.830566 16.3427C1.38428 14.8935 2.18066 13.6335 3.21875 12.5624C4.25684 11.5228 5.50293 10.6722 7.02588 10.0422C8.54883 9.44366 10.2446 9.16013 12.1479 9.12863C13.498 9.12863 14.7783 9.31766 15.9897 9.66415C17.2012 10.0422 18.2739 10.5462 19.2432 11.2393C20.2124 11.9323 21.0083 12.7514 21.6313 13.7595C22.2544 14.7675 22.6353 15.9331 22.8081 17.2247L17.5474 17.2247Z"
              fill="#10239E" fill-opacity="1.000000" fill-rule="nonzero"/>
        <path id="Vector"
              d="M127.752 11.2545L131.995 11.2545L131.995 15.8163L127.752 15.8163L127.752 24.5332C127.752 27.5 127.937 27.4912 128.305 27.8387C128.673 28.1863 129.41 28.3601 130.514 28.3601C130.882 28.4035 131.205 28.3601 131.573 28.3167C131.895 28.3167 132.34 28.0706 132.57 27.8387L132.57 32.6178C131.995 32.8631 131.343 33.1391 130.698 33.1391C130.008 33.1826 129.363 33.1826 128.719 33.1826C128.676 33.1826 127.947 33.1826 127.64 33.1391C126.893 33.0333 125.781 32.6395 125.09 32.2485C124.707 32.0313 123.709 31.0537 123.594 30.6193C123.249 30.0762 123.057 29.0118 123.057 27.8822L123.057 15.8163L118.991 15.8163L118.991 11.2545L123.057 11.2545L123.057 3.65146L127.752 3.65146L127.752 11.2545Z"
              fill="#10239E" fill-opacity="1.000000" fill-rule="nonzero"/>
        <path id="Vector"
              d="M98.7373 15.8163L101.959 15.8163L101.959 32.6612L107.115 32.6612L107.115 15.8163L110.936 15.8163L110.936 11.2545L107.115 11.2545L107.115 10.8634C107.115 9.95108 107.299 9.08466 107.667 8.69363C108.036 8.30264 108.68 8.08542 109.601 8.08542C110.429 8.08542 111.212 8.12885 111.995 8.21573L111.995 3.65143L110.245 3.65143L108.519 3.65143C106.333 3.65143 104.606 4.70386 103.571 5.71512C102.236 7.01849 101.959 8.51736 101.959 10.4724L101.959 11.2545L98.7373 11.2545L98.7373 15.8163ZM117.61 17.7713L112.593 17.7713L112.593 32.6612L117.61 32.6612L117.61 17.7713Z"
              fill="#10239E" fill-opacity="1.000000" fill-rule="evenodd"/>
        <path id="Vector"
              d="M115.214 15.9751L115.173 15.9751C113.85 15.9751 112.777 14.9022 112.777 13.5788C112.777 12.2554 113.85 11.1826 115.173 11.1826L115.214 11.1826C116.538 11.1826 117.61 12.2554 117.61 13.5788C117.61 14.9023 116.538 15.9751 115.214 15.9751Z"
              fill="#40A9FF" fill-opacity="1.000000" fill-rule="evenodd"/>
    </symbol>

</svg>
