<svg width="0" height="0" class="hidden">
    <symbol fill="none" xmlns="http://www.w3.org/2000/svg"
            xmlns:xlink="http://www.w3.org/1999/xlink" viewBox="0 0 110 104.575" id="collapsedlogo">
        <path id="Vector"
              d="M93.4033 35.4685L106.743 35.4685L106.743 49.8452L93.4033 49.8452L93.4033 77.3167C93.4033 86.6665 93.9814 86.6389 95.1396 87.7341C96.2979 88.8296 98.6133 89.3772 102.087 89.3772C103.245 89.5142 104.258 89.3772 105.416 89.2402C106.43 89.2402 107.829 88.4646 108.553 87.7341L108.553 102.795C106.743 103.568 104.692 104.438 102.666 104.438C100.495 104.575 98.4688 104.575 96.4424 104.575C96.3066 104.575 94.0146 104.575 93.0498 104.438C90.6992 104.105 87.2041 102.864 85.0332 101.632C83.8271 100.947 80.6914 97.8662 80.3291 96.4971C79.2432 94.7856 78.6396 91.4309 78.6396 87.8711L78.6396 49.8452L65.8555 49.8452L65.8555 35.4685L78.6396 35.4685L78.6396 11.5076L93.4033 11.5076L93.4033 35.4685Z"
              fill="#10239E" fill-opacity="1.000000" fill-rule="nonzero"/>
        <path id="Vector"
              d="M2.1709 49.8452L12.3027 49.8452L12.3027 102.932L28.5127 102.932L28.5127 49.8452L40.5264 49.8452L40.5264 35.4685L28.5127 35.4685L28.5127 34.2363C28.5127 31.3611 29.0918 28.6304 30.25 27.3982C31.4082 26.166 33.4346 25.4812 36.3291 25.4812C38.9346 25.4812 41.3945 25.6182 43.8555 25.8921L43.8555 11.5076L38.3555 11.5076L32.9277 11.5076C26.0527 11.5076 20.625 14.8245 17.3682 18.0112C13.1709 22.1189 12.3027 26.8425 12.3027 33.0039L12.3027 35.4685L2.1709 35.4685L2.1709 49.8452ZM61.5127 56.0066L45.7373 56.0066L45.7373 102.932L61.5127 102.932L61.5127 56.0066Z"
              fill="#10239E" fill-opacity="1.000000" fill-rule="evenodd"/>
        <path id="Vector"
              d="M61.5127 42.7939C61.5127 46.9646 58.085 50.3457 53.9141 50.3457L53.9141 50.3457C49.7432 50.3457 46.3154 46.9646 46.3154 42.7939L46.3154 42.7939C46.3154 38.623 49.7432 35.2419 53.9141 35.2419L53.9141 35.2419C58.085 35.2419 61.5127 38.623 61.5127 42.7939L61.5127 42.7939Z"
              fill="#40A9FF" fill-opacity="1.000000" fill-rule="nonzero"/>
    </symbol>
    <symbol fill="none" xmlns="http://www.w3.org/2000/svg"
            xmlns:xlink="http://www.w3.org/1999/xlink" viewBox="0 0 426 106.586" id="logo">
        <path id="Vector"
              d="M276.301 51.8623L291.229 51.8623L291.229 61.6685L291.45 61.6685C292.113 60.1362 293.108 58.604 294.436 57.1741C295.652 55.7439 297.09 54.6204 298.748 53.5989C300.297 52.5774 302.065 51.8623 303.945 51.2495C305.715 50.7388 307.705 50.5344 309.695 50.4324C310.691 50.4324 311.797 50.6367 313.124 50.9431L313.124 64.4265C312.35 64.3242 311.465 64.2222 310.47 64.1199C309.364 64.0178 308.369 63.9158 307.484 63.9158C304.609 63.9158 302.177 64.4265 300.186 65.2437C298.195 66.1628 296.537 67.3887 295.32 68.9209C294.104 70.4531 293.22 72.1895 292.777 74.2324C292.225 76.2754 292.003 78.5225 292.003 80.8718L292.003 104.91L276.301 104.91L276.301 51.8623Z"
              fill="#10239E" fill-opacity="1.000000" fill-rule="nonzero"/>
        <path id="Vector"
              d="M255.155 72.5981C254.381 68.9209 253.055 66.1628 251.175 64.2222C249.295 62.3835 246.42 61.4641 242.66 61.3621C240.116 61.3621 238.016 61.7705 236.356 62.5876C234.698 63.405 233.371 64.3242 232.376 65.4478C231.381 66.6736 230.717 67.8994 230.275 69.125C229.833 70.4531 229.611 71.5767 229.611 72.5981L255.155 72.5981ZM229.611 81.7913C229.833 86.49 231.049 89.9629 233.481 92.0059C235.804 94.1509 239.231 95.1724 243.655 95.1724C246.751 95.1724 249.516 94.4573 251.838 93.0273C254.05 91.5972 255.487 89.9629 256.04 88.3286L269.862 88.3286C267.65 94.6616 264.223 99.2583 259.689 101.914C255.045 104.672 249.516 106 243.103 106C238.568 106 234.477 105.387 230.938 104.059C227.289 102.731 224.193 100.791 221.761 98.3389C219.217 95.8875 217.227 93.0273 215.899 89.5544C214.572 86.1836 213.909 82.4041 213.909 78.3184C213.909 74.4368 214.572 70.7595 216.01 67.2864C217.337 63.9158 219.327 60.9534 221.981 58.502C224.524 56.0503 227.621 54.0076 231.159 52.5774C234.698 51.1475 238.679 50.4324 243.103 50.4324C247.968 50.4324 252.17 51.3518 255.818 53.0881C259.357 54.8247 262.343 57.1741 264.665 60.0342C266.987 62.9963 268.646 66.3672 269.752 70.0444C270.747 73.8237 271.079 77.7053 270.857 81.7913L229.611 81.7913Z"
              fill="#10239E" fill-opacity="1.000000" fill-rule="nonzero"/>
        <path id="Vector"
              d="M194.62 104.91L177.148 104.91L157.677 51.8625L174.153 51.8625L186.206 87.9202L186.428 87.9202L198.48 51.8625L214.072 51.8625L194.62 104.91Z"
              fill="#10239E" fill-opacity="1.000000" fill-rule="nonzero"/>
        <path id="Vector"
              d="M141.95 72.5981C141.176 68.9209 139.85 66.1628 137.97 64.2222C136.09 62.3835 133.215 61.4641 129.455 61.3621C126.911 61.3621 124.811 61.7705 123.151 62.5876C121.493 63.405 120.166 64.3242 119.171 65.4478C118.176 66.6736 117.512 67.8994 117.07 69.125C116.628 70.4531 116.406 71.5767 116.406 72.5981L141.95 72.5981ZM116.406 81.7913C116.628 86.49 117.844 89.9629 120.276 92.0059C122.599 94.1509 126.026 95.1724 130.45 95.1724C133.546 95.1724 136.311 94.4573 138.633 93.0273C140.845 91.5972 142.282 89.9629 142.835 88.3286L156.657 88.3286C154.445 94.6616 151.018 99.2583 146.484 101.914C141.84 104.672 136.311 106 129.897 106C125.363 106 121.271 105.387 117.733 104.059C114.084 102.731 110.988 100.791 108.556 98.3389C106.012 95.8875 104.021 93.0273 102.694 89.5544C101.367 86.1836 100.704 82.4041 100.704 78.3184C100.704 74.4368 101.367 70.7595 102.805 67.2864C104.132 63.9158 106.122 60.9534 108.776 58.502C111.319 56.0503 114.416 54.0076 117.954 52.5774C121.493 51.1475 125.474 50.4324 129.897 50.4324C134.763 50.4324 138.965 51.3518 142.613 53.0881C146.152 54.8247 149.138 57.1741 151.46 60.0342C153.782 62.9963 155.44 66.3672 156.547 70.0444C157.542 73.8237 157.874 77.7053 157.652 81.7913L116.406 81.7913Z"
              fill="#10239E" fill-opacity="1.000000" fill-rule="nonzero"/>
        <path id="Vector"
              d="M79.6172 29.3223L95.0986 29.3223L95.0986 104.91L79.6172 104.91L79.6172 29.3223Z"
              fill="#10239E" fill-opacity="1.000000" fill-rule="nonzero"/>
        <path id="Vector"
              d="M56.2041 55.3279C55.8721 53.5063 55.2061 51.8875 54.209 50.3696C53.1006 48.8518 51.8809 47.5364 50.3291 46.322C48.7773 45.209 47.0029 44.2983 45.0078 43.6912C43.0127 43.084 41.0166 42.7803 38.9102 42.6792C34.9199 42.6792 31.5938 43.3875 28.9336 44.8042C26.1621 46.2207 23.9453 48.0422 22.2822 50.3696C20.5088 52.697 19.2891 55.3279 18.5127 58.2622C17.7373 61.2981 17.4043 64.3337 17.4043 67.4705C17.4043 70.5061 17.7373 73.5417 18.5127 76.3752C19.2891 79.2085 20.5088 81.8394 22.2822 84.0654C23.9453 86.3928 26.1621 88.2144 28.9336 89.6309C31.5938 91.0476 34.9199 91.6548 38.9102 91.6548C44.2314 91.6548 48.333 90.238 51.3262 87.2024C54.3193 84.2678 56.2041 80.3215 56.8691 75.4644L73.7197 75.4644C73.2764 80.0181 72.0566 84.0654 70.2832 87.7083C68.3984 91.3511 65.96 94.488 62.9668 97.0176C59.8623 99.6487 56.3154 101.571 52.3242 102.887C48.2227 104.303 43.7881 104.91 38.9102 104.91C32.8135 104.91 27.3818 104 22.5039 102.077C17.626 100.155 13.6357 97.5237 10.3096 94.0833C6.98438 90.7439 4.43457 86.7976 2.66016 82.2441C0.886719 77.6907 0 72.7324 0 67.4705C0 62.1074 0.886719 57.1492 2.66016 52.4946C4.43457 47.8398 6.98438 43.7922 10.3096 40.3518C13.6357 37.0127 17.626 34.2805 22.5039 32.2568C27.3818 30.3342 32.8135 29.4233 38.9102 29.3223C43.2344 29.3223 47.3359 29.9294 51.2158 31.0425C55.0957 32.2568 58.5322 33.8757 61.6357 36.1018C64.7402 38.3281 67.29 40.959 69.2852 44.197C71.2803 47.4351 72.5 51.1792 73.0547 55.3279L56.2041 55.3279Z"
              fill="#10239E" fill-opacity="1.000000" fill-rule="nonzero"/>
        <path id="Vector"
              d="M409.191 36.1509L422.781 36.1509L422.781 50.804L409.191 50.804L409.191 78.8037C409.191 88.3335 409.781 88.3052 410.961 89.4216C412.141 90.5378 414.5 91.0962 418.038 91.0962C419.218 91.2356 420.25 91.0962 421.429 90.9565C422.461 90.9565 423.888 90.166 424.624 89.4216L424.624 104.772C422.781 105.56 420.692 106.447 418.628 106.447C416.416 106.586 414.353 106.586 412.288 106.586C412.149 106.586 409.815 106.586 408.832 106.447C406.438 106.107 402.877 104.842 400.666 103.586C399.437 102.888 396.242 99.7485 395.874 98.353C394.768 96.6084 394.153 93.1895 394.153 89.561L394.153 50.804L381.13 50.804L381.13 36.1509L394.153 36.1509L394.153 11.729L409.191 11.729L409.191 36.1509Z"
              fill="#10239E" fill-opacity="1.000000" fill-rule="nonzero"/>
        <path id="Vector"
              d="M316.257 50.804L326.577 50.804L326.577 104.912L343.091 104.912L343.091 50.804L355.328 50.804L355.328 36.1509L343.091 36.1509L343.091 34.8948C343.091 31.9641 343.681 29.1812 344.86 27.9253C346.04 26.6692 348.104 25.9714 351.053 25.9714C353.706 25.9714 356.213 26.1111 358.72 26.3901L358.72 11.729L353.117 11.729L347.588 11.729C340.584 11.729 335.056 15.1096 331.738 18.3579C327.462 22.5444 326.577 27.3589 326.577 33.6389L326.577 36.1509L316.257 36.1509L316.257 50.804ZM376.707 57.0837L360.636 57.0837L360.636 104.912L376.707 104.912L376.707 57.0837Z"
              fill="#10239E" fill-opacity="1.000000" fill-rule="evenodd"/>
        <path id="Vector"
              d="M376.707 43.6169C376.707 47.8679 373.218 51.314 368.967 51.314L368.967 51.314C364.716 51.314 361.226 47.8679 361.226 43.6169L361.226 43.6169C361.226 39.366 364.716 35.9199 368.967 35.9199L368.967 35.9199C373.218 35.9199 376.707 39.366 376.707 43.6169L376.707 43.6169Z"
              fill="#40A9FF" fill-opacity="1.000000" fill-rule="nonzero"/>
    </symbol>
</svg>
